<svg width="112" height="112" viewBox="0 0 112 112" fill="none" xmlns="http://www.w3.org/2000/svg">
<g filter="url(#filter0_d_104_1356)">
<rect x="20.75" y="10.5391" width="70.9616" height="70.9616" rx="35.4808" fill="#453C9E"/>
</g>
<path d="M54.9528 60.4407C53.0588 60.4407 51.3638 60.0856 49.8675 59.3754C48.3713 58.6557 47.1829 57.6708 46.3022 56.4208C45.431 55.1708 44.967 53.7409 44.9102 52.131H50.0238C50.1185 53.3242 50.6346 54.2996 51.5721 55.0572C52.5096 55.8053 53.6365 56.1793 54.9528 56.1793C55.985 56.1793 56.9035 55.9426 57.7085 55.4691C58.5134 54.9956 59.1478 54.3375 59.6119 53.4947C60.0759 52.6519 60.3031 51.6907 60.2937 50.6112C60.3031 49.5127 60.0711 48.5373 59.5977 47.685C59.1242 46.8327 58.4755 46.1651 57.6516 45.6822C56.8278 45.1897 55.8808 44.9435 54.8107 44.9435C53.9395 44.9341 53.0825 45.0951 52.2397 45.4265C51.3969 45.7579 50.7293 46.1935 50.2369 46.7333L45.4783 45.9521L46.9982 30.9521H63.8732V35.3555H51.359L50.521 43.0685H50.6914C51.2312 42.4341 51.9935 41.9085 52.9783 41.4918C53.9632 41.0657 55.0427 40.8526 56.217 40.8526C57.9783 40.8526 59.5503 41.2693 60.9329 42.1026C62.3155 42.9265 63.4045 44.0629 64.1999 45.5117C64.9954 46.9606 65.3931 48.6178 65.3931 50.4833C65.3931 52.4057 64.948 54.1197 64.0579 55.6254C63.1772 57.1216 61.9509 58.3005 60.3789 59.1623C58.8164 60.0146 57.0077 60.4407 54.9528 60.4407Z" fill="white"/>
<defs>
<filter id="filter0_d_104_1356" x="0.75" y="0.539062" width="110.961" height="110.961" filterUnits="userSpaceOnUse" color-interpolation-filters="sRGB">
<feFlood flood-opacity="0" result="BackgroundImageFix"/>
<feColorMatrix in="SourceAlpha" type="matrix" values="0 0 0 0 0 0 0 0 0 0 0 0 0 0 0 0 0 0 127 0" result="hardAlpha"/>
<feMorphology radius="2" operator="erode" in="SourceAlpha" result="effect1_dropShadow_104_1356"/>
<feOffset dy="10"/>
<feGaussianBlur stdDeviation="11"/>
<feColorMatrix type="matrix" values="0 0 0 0 0.427083 0 0 0 0 0.671455 0 0 0 0 1 0 0 0 0.36 0"/>
<feBlend mode="normal" in2="BackgroundImageFix" result="effect1_dropShadow_104_1356"/>
<feBlend mode="normal" in="SourceGraphic" in2="effect1_dropShadow_104_1356" result="shape"/>
</filter>
</defs>
</svg>
