<svg width="215" height="30" viewBox="0 0 215 30" fill="none" xmlns="http://www.w3.org/2000/svg">
<path d="M5.34844 14.3203H19.8084V9.85031H5.34844V5.05031H20.2284V0.610311H0.398438V22.0003H5.34844V14.3203Z" fill="#0B132A"/>
<path d="M38.9958 17.9203L39.4458 22.0003H43.5858V11.2903C43.5858 7.54031 42.0258 5.62031 38.9958 4.78031C37.4658 4.39031 35.6358 4.18031 33.3858 4.18031C26.7558 4.18031 23.0658 6.19031 22.4958 10.7803H27.7458C27.8958 9.40031 28.6158 8.56031 30.3558 8.17031C31.1958 7.93031 32.3358 7.84031 33.8358 7.84031C36.3258 7.84031 37.6758 8.32031 38.2458 9.01031C38.5758 9.37031 38.6958 9.73031 38.6958 10.1203V10.1503C38.6958 10.9003 38.2158 11.2903 36.8058 11.5003C36.1158 11.6203 35.1258 11.6803 33.8358 11.7703C30.1458 11.9803 28.1058 12.2203 26.6958 12.5803C26.0058 12.7903 25.3758 13.0003 24.8058 13.2703C22.9158 14.1403 22.0758 15.6403 22.0758 17.6503V17.6803C22.0758 20.9803 24.6858 22.5703 29.4258 22.5703C34.4058 22.5703 37.5858 20.6503 38.9958 17.9203ZM30.9558 18.9703C28.4358 18.9703 27.4758 18.3703 27.4758 17.2303V17.2003C27.4758 16.5103 27.8358 16.0003 28.5558 15.6403C29.4858 15.1903 30.9858 14.9503 34.2858 14.8003C37.1058 14.6503 38.3058 14.2303 38.7558 13.6303V13.7503C38.7558 15.4903 37.3458 17.1703 34.9758 18.1903C33.8058 18.7003 32.4858 18.9703 30.9558 18.9703Z" fill="#0B132A"/>
<path d="M57.4873 22.5703C64.2073 22.5703 67.6273 20.0503 67.6273 16.6003C67.6273 14.8003 67.1173 13.5703 65.6173 12.7603C64.1773 11.9203 61.6873 11.5003 57.7573 11.3503C54.8773 11.2303 53.2573 11.0803 52.4173 10.8403C51.5773 10.5703 51.4273 10.2103 51.4273 9.70031C51.4273 9.07031 51.8773 8.47031 53.1973 8.11031C53.8873 7.90031 54.8173 7.84031 56.0773 7.84031C59.2873 7.84031 61.3873 8.38031 61.8673 10.1503H67.3873C66.1273 5.98031 62.6173 4.15031 56.1373 4.15031C51.7573 4.15031 48.9673 5.26031 47.5573 7.06031C46.8373 7.93031 46.5073 8.95031 46.5073 10.1203C46.5073 13.5403 49.1773 14.9503 56.0173 15.1603C58.8973 15.2503 60.6073 15.3703 61.4773 15.6103C62.3473 15.8203 62.5873 16.1503 62.5873 16.7203C62.5873 17.9203 61.5073 18.6703 57.7573 18.6703C53.7673 18.6703 52.2973 17.9803 51.7273 16.3003H45.8773C46.7473 20.5603 50.4073 22.5703 57.4873 22.5703Z" fill="#0B132A"/>
<path d="M85.7074 22.0003V17.5903H83.0674C81.0574 17.5903 79.8874 17.4703 79.2574 16.7803C78.5674 16.1503 78.4174 14.8903 78.4174 12.6703V9.10031H85.7074V4.78031H78.4174V0.0703125H74.1574C74.1874 1.00031 74.1574 2.41031 73.8874 3.28031C73.5574 4.27031 73.1674 4.69031 72.0874 4.90031C71.2174 5.02031 69.8674 5.02031 68.7874 5.02031V9.10031H73.5874V13.5103C73.5874 17.6803 74.4274 20.0503 76.7974 21.1903C77.9674 21.7003 79.5874 22.0003 81.7174 22.0003H85.7074Z" fill="#0B132A"/>
<path d="M112.418 26.0803H118.598L115.118 21.3703C118.898 19.7203 121.208 16.5103 121.208 11.5603V11.3503C121.208 6.49031 118.868 3.13031 114.968 1.39031C112.988 0.520312 110.858 0.0703125 108.368 0.0703125C103.418 0.0703125 99.488 1.87031 97.268 5.26031C96.188 6.94031 95.618 8.98031 95.618 11.3803V11.5303C95.618 16.6903 97.808 19.8703 101.678 21.4303C103.598 22.2403 105.818 22.6003 108.398 22.6003C108.968 22.6003 109.568 22.5703 110.078 22.5403L112.418 26.0803ZM108.368 18.0403C103.628 18.0403 100.808 16.0003 100.808 11.5003V11.4703C100.808 6.58031 103.628 4.60031 108.398 4.60031C111.578 4.60031 113.828 5.44031 115.088 7.45031C115.718 8.50031 116.018 9.82031 116.018 11.5003V11.5303C116.018 14.7403 114.728 16.6003 112.448 17.4103C111.308 17.8603 109.988 18.0403 108.368 18.0403Z" fill="#0B132A"/>
<path d="M140.266 18.1003L140.716 22.0003H145.096V4.78031H139.906V12.8803C139.906 16.3003 138.166 18.4003 134.866 18.4003C131.086 18.4003 129.706 16.6003 129.706 13.1803V4.78031H124.546V14.2003C124.546 19.3603 127.426 22.5703 132.766 22.5703C136.636 22.5703 139.126 20.8303 140.266 18.1003Z" fill="#0B132A"/>
<path d="M170.912 16.8703H165.302C164.462 18.0403 162.962 18.6403 159.812 18.6403C155.642 18.6403 153.722 17.4703 153.122 15.2203H171.122V13.3903C171.122 9.52031 169.292 6.76031 165.902 5.26031C164.162 4.51031 162.182 4.15031 159.782 4.15031C154.622 4.15031 151.292 6.04031 149.552 8.98031C148.712 10.4203 148.292 11.9803 148.292 13.7203C148.292 17.2303 149.582 19.9303 152.852 21.4603C154.502 22.1803 156.662 22.5703 159.392 22.5703C165.092 22.5703 169.052 21.1303 170.912 16.8703ZM159.932 8.05031C163.622 8.05031 165.512 9.07031 166.082 11.5903H153.242C153.962 9.34031 156.122 8.05031 159.932 8.05031Z" fill="#0B132A"/>
<path d="M174.208 22.0003H179.398V16.3003C179.398 12.9103 180.028 11.0503 181.948 10.2103C182.908 9.76031 184.288 9.58031 186.088 9.58031H188.398V4.60031H186.208C182.218 4.60031 180.118 6.49031 179.188 9.58031L178.618 4.78031H174.208V22.0003Z" fill="#0B132A"/>
<path d="M191.089 29.7403H193.339C196.099 29.7403 197.869 29.5003 199.309 28.5703C200.719 27.6103 201.919 25.9303 203.569 23.0503L214.039 4.78031H208.549L202.309 16.1503L202.099 16.6303L201.889 16.0903L195.619 4.78031H190.039L199.429 21.1303L198.859 22.1503C197.989 23.6803 197.239 24.6103 195.979 25.0003C195.379 25.2403 194.599 25.3303 193.579 25.3303H191.089V29.7403Z" fill="#0B132A"/>
</svg>
