<svg width="203" height="57" viewBox="0 0 203 57" fill="none" xmlns="http://www.w3.org/2000/svg">
<path fill-rule="evenodd" clip-rule="evenodd" d="M22.6626 19.0446H44.619V0.621094H1.10938V0.79009L22.6626 19.0446Z" fill="#B3B3B3"/>
<path fill-rule="evenodd" clip-rule="evenodd" d="M22.6673 19.043H0.710938V37.4665H44.2206V37.2968L22.6673 19.043Z" fill="#B3B3B3"/>
<path fill-rule="evenodd" clip-rule="evenodd" d="M0.710938 37.4688H22.4653V56.0628L0.710938 37.4688Z" fill="#D5D5D5"/>
<path d="M74.5136 37.4188V27.3145H87.6113V22.5424H74.5136V15.8353H88.6652V11.0195H68.1406V37.4188H74.5136Z" fill="#B3B3B3"/>
<path d="M105.044 18.1132C104.694 17.941 103.74 17.7695 102.686 17.7695C100.478 17.7695 98.6206 18.7149 97.6678 20.0907V18.199H91.4453V37.4181H97.6678V25.5086C98.1194 23.7451 99.8251 22.7996 101.933 22.7996C103.087 22.7996 104.191 23.0143 105.044 23.4446V18.1132Z" fill="#B3B3B3"/>
<path d="M125.764 37.4181V25.164C125.764 20.5642 122.301 17.7695 116.33 17.7695C111.211 17.7695 107.548 20.4352 106.896 23.9173H112.817C113.319 22.7996 114.373 22.1113 116.129 22.1113C118.638 22.1113 119.792 23.4446 119.792 25.0783V26.4973C118.889 25.938 116.631 25.3796 114.674 25.3796C109.807 25.3796 105.992 27.873 105.992 31.5274C105.992 35.5264 109.807 37.7618 114.322 37.7618C116.782 37.7618 119.039 37.0311 119.792 36.3861V37.4181H125.764ZM119.792 32.1724C119.24 33.2044 117.535 33.8494 115.728 33.8494C113.771 33.8494 111.764 33.1611 111.764 31.485C111.764 29.8504 113.771 29.1197 115.728 29.1197C117.535 29.1197 119.24 29.7647 119.792 30.7967V32.1724Z" fill="#B3B3B3"/>
<path d="M147.728 20.2197C146.473 18.8007 144.365 17.7695 141.706 17.7695C139.197 17.7695 137.139 18.5859 136.036 19.7902V18.199H129.812V37.4181H136.036V25.035C136.437 23.4013 137.943 22.5416 139.548 22.5416C141.706 22.5416 142.71 23.9173 142.71 25.9813V37.4181H148.982V25.035C149.384 23.4013 150.839 22.5416 152.445 22.5416C154.602 22.5416 155.656 23.9173 155.656 25.9813V37.4181H161.879V24.8636C161.879 20.5209 159.119 17.7695 154.502 17.7695C151.34 17.7695 149.183 18.8439 147.728 20.2197Z" fill="#B3B3B3"/>
<path d="M179.702 31.1404C179.201 32.7741 177.645 33.5481 175.538 33.5481C172.778 33.5481 170.871 31.8287 170.67 28.9483H185.625V27.3137C185.625 21.6819 182.011 17.7695 175.437 17.7695C169.165 17.7695 164.648 22.0256 164.648 27.8297C164.648 33.7637 169.015 37.8484 175.538 37.8484C181.158 37.8484 184.671 35.2251 185.474 31.1404H179.702ZM175.488 22.1113C178.047 22.1113 179.452 23.7026 179.502 25.7233H170.82C171.373 23.3589 173.079 22.1113 175.488 22.1113Z" fill="#B3B3B3"/>
<path d="M202.169 18.1132C201.819 17.941 200.865 17.7695 199.811 17.7695C197.603 17.7695 195.747 18.7149 194.793 20.0907V18.199H188.57V37.4181H194.793V25.5086C195.244 23.7451 196.951 22.7996 199.058 22.7996C200.213 22.7996 201.316 23.0143 202.169 23.4446V18.1132Z" fill="#B3B3B3"/>
</svg>
