<svg width="112" height="112" viewBox="0 0 112 112" fill="none" xmlns="http://www.w3.org/2000/svg">
<g filter="url(#filter0_d_104_1342)">
<rect x="20.1992" y="12.5234" width="70.9616" height="70.9616" rx="35.4808" fill="#453C9E"/>
</g>
<path d="M55.8029 62.4251C53.7575 62.4251 51.9393 62.0747 50.3484 61.3739C48.7669 60.6732 47.5169 59.6978 46.5984 58.4478C45.6798 57.1978 45.1921 55.7537 45.1353 54.1154H50.4762C50.5236 54.9014 50.784 55.5879 51.2575 56.1751C51.7309 56.7527 52.3607 57.2025 53.1467 57.5245C53.9326 57.8465 54.8133 58.0075 55.7887 58.0075C56.8304 58.0075 57.7537 57.8275 58.5586 57.4677C59.3635 57.0984 59.9933 56.587 60.4478 55.9336C60.9023 55.2802 61.1249 54.5273 61.1154 53.6751C61.1249 52.7944 60.8976 52.0179 60.4336 51.3455C59.9696 50.6732 59.2972 50.1476 58.4165 49.7688C57.5453 49.39 56.4942 49.2006 55.2631 49.2006H52.6921V45.1381H55.2631C56.2764 45.1381 57.1618 44.9629 57.9194 44.6126C58.6864 44.2622 59.2878 43.7698 59.7234 43.1353C60.159 42.4914 60.372 41.748 60.3626 40.9052C60.372 40.0813 60.1874 39.3664 59.8086 38.7603C59.4393 38.1448 58.9137 37.6665 58.2319 37.3256C57.5595 36.9847 56.7688 36.8143 55.8597 36.8143C54.9696 36.8143 54.1457 36.9753 53.3881 37.2972C52.6306 37.6192 52.0198 38.0785 51.5558 38.6751C51.0917 39.2622 50.8455 39.9629 50.8171 40.7773H45.7461C45.784 39.1486 46.2527 37.7186 47.1523 36.4876C48.0614 35.247 49.2736 34.2811 50.7887 33.5898C52.3039 32.8891 54.0037 32.5387 55.8881 32.5387C57.8294 32.5387 59.515 32.9033 60.945 33.6325C62.3844 34.3522 63.497 35.3228 64.283 36.5444C65.069 37.766 65.462 39.1154 65.462 40.5927C65.4715 42.2309 64.9885 43.604 64.0131 44.712C63.0472 45.82 61.7783 46.5444 60.2063 46.8853V47.1126C62.2518 47.3967 63.819 48.1542 64.908 49.3853C66.0065 50.6069 66.551 52.1268 66.5415 53.945C66.5415 55.5737 66.0775 57.0321 65.1495 58.32C64.2309 59.5984 62.962 60.6022 61.3427 61.3313C59.7328 62.0605 57.8862 62.4251 55.8029 62.4251Z" fill="white"/>
<defs>
<filter id="filter0_d_104_1342" x="0.199219" y="0.523438" width="110.961" height="110.961" filterUnits="userSpaceOnUse" color-interpolation-filters="sRGB">
<feFlood flood-opacity="0" result="BackgroundImageFix"/>
<feColorMatrix in="SourceAlpha" type="matrix" values="0 0 0 0 0 0 0 0 0 0 0 0 0 0 0 0 0 0 127 0" result="hardAlpha"/>
<feMorphology radius="2" operator="erode" in="SourceAlpha" result="effect1_dropShadow_104_1342"/>
<feOffset dy="8"/>
<feGaussianBlur stdDeviation="11"/>
<feColorMatrix type="matrix" values="0 0 0 0 0.971137 0 0 0 0 0.341921 0 0 0 0 0.36709 0 0 0 0.3 0"/>
<feBlend mode="normal" in2="BackgroundImageFix" result="effect1_dropShadow_104_1342"/>
<feBlend mode="normal" in="SourceGraphic" in2="effect1_dropShadow_104_1342" result="shape"/>
</filter>
</defs>
</svg>
