<svg width="112" height="112" viewBox="0 0 112 112" fill="none" xmlns="http://www.w3.org/2000/svg">
<g filter="url(#filter0_d_104_1363)">
<rect x="20.75" y="10.5234" width="70.9616" height="70.9616" rx="35.4808" fill="#453C9E"/>
</g>
<path d="M54.4144 60.4251C53.0224 60.4156 51.6635 60.1741 50.3377 59.7006C49.012 59.2177 47.8188 58.4364 46.7582 57.3569C45.6976 56.2679 44.8548 54.8237 44.2298 53.0245C43.6048 51.2158 43.297 48.9762 43.3065 46.3058C43.3065 43.8152 43.5716 41.5946 44.1019 39.6438C44.6322 37.6931 45.3945 36.0453 46.3888 34.7006C47.3832 33.3465 48.5811 32.3143 49.9826 31.604C51.3936 30.8938 52.9703 30.5387 54.7127 30.5387C56.5404 30.5387 58.1597 30.8986 59.5707 31.6183C60.9911 32.3379 62.137 33.3228 63.0082 34.5728C63.8794 35.8133 64.4192 37.2148 64.6275 38.7773H59.4428C59.1777 37.6599 58.6332 36.7698 57.8093 36.1069C56.9949 35.4345 55.9627 35.0984 54.7127 35.0984C52.6957 35.0984 51.1426 35.9743 50.0536 37.7262C48.9741 39.4781 48.4296 41.8834 48.4201 44.9421H48.619C49.083 44.1088 49.6843 43.3938 50.4229 42.7972C51.1616 42.2006 51.9949 41.7414 52.9229 41.4194C53.8604 41.0879 54.85 40.9222 55.8917 40.9222C57.5962 40.9222 59.1256 41.3294 60.4798 42.1438C61.8434 42.9582 62.9229 44.0804 63.7184 45.5103C64.5138 46.9308 64.9068 48.5595 64.8974 50.3967C64.9068 52.3095 64.4712 54.0283 63.5906 55.5529C62.7099 57.0681 61.4835 58.2612 59.9116 59.1325C58.3396 60.0037 56.5072 60.4345 54.4144 60.4251ZM54.386 56.1637C55.4182 56.1637 56.3415 55.9128 57.1559 55.4109C57.9703 54.909 58.6142 54.2319 59.0877 53.3796C59.5612 52.5273 59.7932 51.5709 59.7837 50.5103C59.7932 49.4686 59.5659 48.5264 59.1019 47.6836C58.6474 46.8408 58.0176 46.1732 57.2127 45.6808C56.4078 45.1883 55.4892 44.9421 54.457 44.9421C53.69 44.9421 52.975 45.0889 52.3121 45.3825C51.6493 45.676 51.0716 46.0832 50.5792 46.604C50.0868 47.1154 49.6985 47.712 49.4144 48.3938C49.1398 49.0662 48.9978 49.7859 48.9883 50.5529C48.9978 51.5662 49.2345 52.4989 49.6985 53.3512C50.1625 54.2035 50.8017 54.8853 51.6161 55.3967C52.4305 55.908 53.3538 56.1637 54.386 56.1637Z" fill="white"/>
<defs>
<filter id="filter0_d_104_1363" x="0.75" y="0.523438" width="110.961" height="110.961" filterUnits="userSpaceOnUse" color-interpolation-filters="sRGB">
<feFlood flood-opacity="0" result="BackgroundImageFix"/>
<feColorMatrix in="SourceAlpha" type="matrix" values="0 0 0 0 0 0 0 0 0 0 0 0 0 0 0 0 0 0 127 0" result="hardAlpha"/>
<feMorphology radius="2" operator="erode" in="SourceAlpha" result="effect1_dropShadow_104_1363"/>
<feOffset dy="10"/>
<feGaussianBlur stdDeviation="11"/>
<feColorMatrix type="matrix" values="0 0 0 0 0.97947 0 0 0 0 0.730307 0 0 0 0 0.328531 0 0 0 0.3 0"/>
<feBlend mode="normal" in2="BackgroundImageFix" result="effect1_dropShadow_104_1363"/>
<feBlend mode="normal" in="SourceGraphic" in2="effect1_dropShadow_104_1363" result="shape"/>
</filter>
</defs>
</svg>
