<svg width="70" height="70" viewBox="0 0 70 70" fill="none" xmlns="http://www.w3.org/2000/svg">
<circle cx="34.8917" cy="34.9894" r="34.8214" fill="#E9EFF7"/>
<path d="M33.5946 51.1871C31.4028 51.1871 29.3552 50.8266 27.4517 50.1056C25.5772 49.3558 23.991 48.3031 22.6932 46.9476L28.1006 41.6267C28.5909 42.3189 29.3407 42.8957 30.3501 43.3571C31.3595 43.7897 32.3977 44.006 33.4648 44.006C34.33 44.006 35.0943 43.8618 35.7576 43.5734C36.4497 43.285 36.9833 42.8668 37.3582 42.3189C37.7619 41.7709 37.9638 41.1076 37.9638 40.3289C37.9638 39.5503 37.7619 38.8869 37.3582 38.339C36.9544 37.791 36.3776 37.3729 35.6278 37.0845C34.878 36.7961 33.9839 36.6519 32.9457 36.6519C32.3689 36.6519 31.7489 36.6951 31.0855 36.7816C30.4511 36.8393 29.9608 36.9403 29.6147 37.0845L33.3783 32.4124C34.3877 32.1817 35.2817 31.9942 36.0604 31.85C36.8679 31.677 37.5745 31.5905 38.1801 31.5905C39.7375 31.5905 41.1362 31.951 42.3763 32.672C43.6164 33.393 44.597 34.4312 45.3179 35.7867C46.0389 37.1133 46.3994 38.6995 46.3994 40.5452C46.3994 42.6505 45.8659 44.5107 44.7988 46.1257C43.7606 47.7119 42.2754 48.952 40.3431 49.846C38.4397 50.7401 36.1902 51.1871 33.5946 51.1871ZM29.6147 37.0845V32.4557L36.4065 24.4527L45.6208 24.4959L38.6127 32.4124L29.6147 37.0845ZM24.9859 26.9617V19.8671H45.6208V24.4959L39.2616 26.9617H24.9859Z" fill="#1A0F91"/>
</svg>
