<svg width="71" height="70" viewBox="0 0 71 70" fill="none" xmlns="http://www.w3.org/2000/svg">
<circle cx="35.4621" cy="34.9894" r="34.8214" fill="#E9EFF7"/>
<path d="M23.6358 46.0392L35.9215 33.6669C36.4118 33.1767 36.8011 32.7297 37.0895 32.3259C37.4067 31.8933 37.623 31.4895 37.7384 31.1146C37.8826 30.7397 37.9547 30.3504 37.9547 29.9466C37.9547 28.9372 37.623 28.1441 36.9597 27.5673C36.3252 26.9617 35.4601 26.6589 34.3641 26.6589C33.3836 26.6589 32.4751 26.9617 31.6388 27.5673C30.8024 28.1441 29.9084 29.1391 28.9567 30.5523L23.3329 25.4909C24.6019 23.4721 26.2313 21.9436 28.2213 20.9054C30.2401 19.8671 32.5328 19.348 35.0996 19.348C37.4356 19.348 39.4399 19.7662 41.1126 20.6025C42.8142 21.4101 44.112 22.5781 45.006 24.1066C45.9289 25.6351 46.3903 27.452 46.3903 29.5573C46.3903 30.7397 46.2317 31.85 45.9145 32.8883C45.5972 33.9265 45.0925 34.9503 44.4004 35.9597C43.7082 36.9403 42.8142 37.9496 41.7183 38.9879L33.9748 46.342L23.6358 46.0392ZM23.6358 50.668V46.0392L30.8169 43.5734H47.0392V50.668H23.6358Z" fill="#1A0F91"/>
</svg>
